# xmcd
#
# Track frame offsets: 
#        150
#        21476
#        42536
#        65787
#        88594
#        111993
#        135629
#        158723
#        184718
#        209715
#        227201
#        247185
#        267937
#
# Disc length: 3848 seconds
#
# Revision: 1
# Processed by: cddbd v1.5.2PL0 Copyright (c) Steve Scherf et al.
# Submitted via: ExactAudioCopy v1.0b3
#
DISCID=c90f060d
DTITLE=孙露 - DTS ES 正品 寂寞诱惑
DYEAR=2011
DGENRE=DTS ES
TTITLE0=爱情的秋天
TTITLE1=多想把你留住
TTITLE2=猜心
TTITLE3=无法原谅(回家的诱惑主题曲)
TTITLE4=我爱你却要离开你
TTITLE5=小小的太阳
TTITLE6=小小新娘花
TTITLE7=被伤过的心还可以爱谁
TTITLE8=难忍的悲
TTITLE9=这一生说过我爱你
TTITLE10=突然的自我
TTITLE11=心痛证明我爱你(原创)
TTITLE12=人生何处不相逢
EXTD=
EXTT0=
EXTT1=
EXTT2=
EXTT3=
EXTT4=
EXTT5=
EXTT6=
EXTT7=
EXTT8=
EXTT9=
EXTT10=
EXTT11=
EXTT12=
PLAYORDER=
